<svg width="36" height="22" viewBox="0 0 36 22" fill="none" xmlns="http://www.w3.org/2000/svg">
<path d="M4.01236 6.48454C-0.489883 8.30275 -0.403302 11.3764 0.895423 12.502C2.02098 13.4111 3.62274 13.3678 5.05134 13.2379C7.30246 13.0647 11.545 13.108 13.6229 13.3678C15.0082 13.5409 16.0039 15.0128 16.2637 16.3981C16.5234 17.7834 15.6143 21.6796 17.7356 21.9394C19.8135 22.1991 19.6836 18.1298 19.7269 17.0475C19.7702 15.9652 19.7269 13.1946 21.0689 13.1946C22.411 13.1946 22.3677 16.4847 22.3244 17.3505C22.2378 18.9956 24.2292 19.4285 24.4023 17.264C24.4456 16.4847 23.5798 13.8873 24.9218 13.8873C26.2638 13.8873 25.1816 16.7878 25.9608 17.1774C27.3028 17.87 27.3028 15.7055 27.6924 15.0561C29.1643 12.7184 33.4501 15.0994 34.8354 12.7184C35.6147 11.3331 34.7056 9.60148 33.4934 8.60579C32.238 7.6101 30.7228 7.09061 29.5539 6.00834C28.0821 4.66632 27.3894 2.58836 25.7444 1.4628C23.5365 -0.00908546 18.6447 -0.398703 16.1771 0.423823C11.2852 1.98229 8.0817 4.83949 4.01236 6.48454Z" fill="white"/>
<path opacity="0.3" d="M35.095 11.0301C34.6695 8.39781 31.2236 7.20584 29.2505 5.61874C28.0512 4.65099 28.0282 5.61888 29.0341 6.81888C29.604 7.49879 30.7355 7.99972 31.2466 8.71568C32.4073 10.3415 32.0204 12.3157 29.8152 12.5092C28.6158 12.6254 27.3391 12.3931 26.2172 12.935C25.985 13.0512 25.6755 13.0512 25.4821 12.8576C25.0178 12.4318 24.3214 12.3157 23.6637 12.5479C23.4703 12.6254 23.3155 12.7028 23.1608 12.8189C22.89 13.0125 22.5031 12.9738 22.2709 12.7028C22.0775 12.4705 21.8454 12.277 21.5359 12.1221C19.6788 11.2318 18.4408 12.8963 18.2087 14.5609C18.0926 15.5286 18.17 16.4963 18.2087 17.5028C18.2087 17.9286 18.4021 18.7028 18.0926 19.0512C17.551 19.6705 17.3962 19.0125 17.3188 18.4318C17.048 16.4189 18.1313 14.3673 16.2356 12.8189C14.4946 11.3092 11.2835 11.735 9.15559 11.8899C7.53068 12.006 5.67364 12.3157 4.20348 11.5028C2.46251 10.4963 2.8107 9.10277 3.8166 7.67051C4.08742 7.32212 3.73922 6.85761 3.35234 6.8189C2.62678 6.8189 0.753547 8.71569 0.24584 9.73135C-0.403375 11.0301 0.366695 12.3931 1.01611 12.8189C3.29873 13.8254 8.45348 13.1946 10.8522 13.1946C11.8194 13.1946 13.3869 13.3178 14.3154 13.6275C15.4374 14.0146 16.3129 15.4737 16.2356 16.4414C16.1195 18.0285 16.0468 18.8347 16.4797 20.7705C16.7701 22.0692 18.3172 22.7186 19.2939 20.7705C19.8892 19.583 19.5103 15.3592 20.0657 13.9802C20.1818 13.5157 21.2871 12.636 21.8911 13.844C22.4951 15.052 21.5359 18.4318 23.1898 18.8224C23.6637 18.9343 24.0013 18.4985 24.2721 17.9566C24.3882 17.7243 24.4342 13.8053 24.705 13.844C26.2202 13.6275 24.8858 16.8565 26.2202 17.3072C26.8695 17.5237 27.2283 16.6579 27.3004 16.4414C27.4165 16.093 27.5189 14.9262 28.1683 14.4933C28.5938 14.0675 29.5381 13.7077 30.7657 13.844C33.3632 14.1322 35.5206 13.5075 35.095 11.0301Z" fill="#336EC2"/>
<g opacity="0.35">
<path d="M7.38865 8.43259C7.73498 8.43259 7.73498 7.86981 7.38865 7.86981C7.04232 7.86981 7.04232 8.43259 7.38865 8.43259Z" fill="#336EC2"/>
</g>
<g opacity="0.35">
<path d="M9.50976 7.65333C9.68292 7.65333 9.68292 7.39359 9.50976 7.39359C9.33659 7.39359 9.33659 7.65333 9.50976 7.65333Z" fill="#336EC2"/>
</g>
<g opacity="0.35">
<path d="M20.3758 2.97799C20.549 3.06457 20.7221 3.19444 20.8953 3.28103C20.8953 3.28103 20.8953 3.23773 20.9386 3.23773C20.9386 3.19444 20.9386 3.19444 20.9819 3.15115C20.9819 3.10786 20.9819 3.06457 20.9819 3.02128C20.9819 2.97799 20.9819 2.97799 20.9819 2.9347C20.9819 2.89141 20.9386 2.84812 20.9386 2.84812L20.8953 2.80483C20.852 2.80483 20.852 2.80483 20.8087 2.76154C20.7654 2.76154 20.7221 2.76154 20.6788 2.76154C20.6356 2.76154 20.5923 2.76154 20.549 2.80483C20.549 2.80483 20.549 2.80483 20.5057 2.80483C20.4624 2.89141 20.4191 2.89141 20.3758 2.97799C20.3758 2.97799 20.3325 3.02128 20.3325 3.06457C20.3325 3.10786 20.3325 3.15115 20.3325 3.19444C20.3325 3.23773 20.3325 3.28103 20.3758 3.32432L20.4191 3.36761C20.4624 3.4109 20.5057 3.45419 20.549 3.45419C20.5923 3.45419 20.5923 3.45419 20.6356 3.45419C20.6788 3.45419 20.7654 3.45419 20.8087 3.4109C20.852 3.36761 20.8953 3.32432 20.9386 3.28103C20.9819 3.23773 20.9819 3.19444 20.9819 3.10786C20.9819 3.06457 20.9819 3.06457 20.9819 3.02128C20.9819 2.97799 20.9386 2.9347 20.8953 2.89141C20.852 2.84812 20.852 2.84812 20.8087 2.80483C20.7654 2.80483 20.7221 2.76154 20.6788 2.76154C20.6356 2.76154 20.549 2.76154 20.5057 2.80483C20.4191 2.89141 20.3758 2.9347 20.3758 2.97799Z" fill="#336EC2"/>
</g>
<g opacity="0.35">
<path d="M31.3718 8.77895C31.5017 8.77895 31.5017 8.5625 31.3718 8.5625C31.2419 8.5625 31.2419 8.77895 31.3718 8.77895Z" fill="#336EC2"/>
</g>
<g opacity="0.35">
<path d="M28.5576 8.99539C28.8606 8.99539 28.8606 8.5192 28.5576 8.5192C28.2113 8.5192 28.2113 8.99539 28.5576 8.99539Z" fill="#336EC2"/>
</g>
<g opacity="0.15">
<path d="M8.08129 7.2205C8.29774 7.2205 8.29774 6.87418 8.08129 6.87418C7.86483 6.87418 7.86483 7.2205 8.08129 7.2205Z" fill="#336EC2"/>
</g>
<g opacity="0.15">
<path d="M19.5534 1.54942C19.8565 1.54942 19.8565 1.11652 19.5534 1.11652C19.2504 1.11652 19.2504 1.54942 19.5534 1.54942Z" fill="#336EC2"/>
</g>
<g opacity="0.15">
<path d="M21.7178 1.93904C21.8909 1.93904 21.8909 1.67929 21.7178 1.67929C21.5446 1.67929 21.5446 1.93904 21.7178 1.93904Z" fill="#336EC2"/>
</g>
<g opacity="0.15">
<path d="M31.1987 10.2942C31.3286 10.2942 31.3286 10.0777 31.1987 10.0777C31.0688 10.0344 31.0255 10.2942 31.1987 10.2942Z" fill="#336EC2"/>
</g>
<g opacity="0.15">
<path d="M25.311 4.62306C25.4842 4.62306 25.4842 4.36331 25.311 4.36331C25.1379 4.4066 25.1379 4.62306 25.311 4.62306Z" fill="#336EC2"/>
</g>
</svg>
