<svg width="68" height="12" viewBox="0 0 68 12" fill="none" xmlns="http://www.w3.org/2000/svg">
<path d="M6 0L7.9538 3.31083L11.7063 4.1459L9.16131 7.02717L9.52671 10.8541L6 9.324L2.47329 10.8541L2.83869 7.02717L0.293661 4.1459L4.0462 3.31083L6 0Z" fill="#FFE608"/>
<path d="M20 0L21.9538 3.31083L25.7063 4.1459L23.1613 7.02717L23.5267 10.8541L20 9.324L16.4733 10.8541L16.8387 7.02717L14.2937 4.1459L18.0462 3.31083L20 0Z" fill="#FFE608"/>
<path d="M34 0L35.9538 3.31083L39.7063 4.1459L37.1613 7.02717L37.5267 10.8541L34 9.324L30.4733 10.8541L30.8387 7.02717L28.2937 4.1459L32.0462 3.31083L34 0Z" fill="#FFE608"/>
<path d="M48 0L49.9538 3.31083L53.7063 4.1459L51.1613 7.02717L51.5267 10.8541L48 9.324L44.4733 10.8541L44.8387 7.02717L42.2937 4.1459L46.0462 3.31083L48 0Z" fill="#FFE608"/>
<path d="M62 0L63.9538 3.31083L67.7063 4.1459L65.1613 7.02717L65.5267 10.8541L62 9.324L58.4733 10.8541L58.8387 7.02717L56.2937 4.1459L60.0462 3.31083L62 0Z" fill="#FFE608"/>
</svg>
