<svg width="29" height="14" viewBox="0 0 29 14" fill="none" xmlns="http://www.w3.org/2000/svg">
<path d="M1.14593 3.14773C0.7682 3.39571 0.0999129 4.38762 0.0708569 5.01884C0.0418009 5.55988 0.332361 6.03329 0.651976 6.1911C0.971592 6.37144 1.33479 6.30381 1.66894 6.25873C4.48737 5.8304 8.11936 6.05584 10.9087 6.73214C11.3736 6.84486 12.1146 6.95757 12.4487 7.45353C13.2623 8.64833 12.347 11.7142 13.0734 11.7142C13.7417 11.7142 13.4802 10.6998 13.393 9.16683C13.3204 7.97203 13.5383 6.95757 14.0758 7.18301C14.7732 7.47607 14.3664 9.21191 14.5553 9.97839C14.8168 11.0154 15.4705 10.5645 15.5722 10.2038C15.7611 9.52752 15.5722 8.7385 15.5722 8.33272C15.5722 6.16855 16.778 6.52925 16.778 8.22C16.778 9.91076 17.1994 10.0235 17.5626 10.0235C18.2163 10.0235 18.318 8.78359 18.6957 8.10729C19.6836 6.39399 24.6958 7.61133 27.7612 6.64196C28.2697 6.48416 29.0542 6.10092 28.9525 5.35699C28.8653 4.22982 26.9767 4.65814 25.9743 4.31999C23.2139 3.41825 20.8895 -0.256325 18.071 0.0141959C15.6884 0.23963 13.6545 3.28299 11.2719 3.19282C9.60122 3.12519 8.11936 1.50206 6.49223 0.938477C4.41473 0.217087 1.8578 1.59224 0.419529 4.02693C0.158025 4.45525 0.172553 4.74832 0.230665 5.33445C0.288777 5.92057 0.811784 6.37144 1.07329 5.92057" fill="white"/>
<path opacity="0.3" d="M28.1286 4.6595C26.9832 4.43407 26.3394 4.23118 26.8043 4.88494C27.2837 5.5387 28.579 4.91134 28.1286 5.2044C27.6492 5.49747 27.4439 5.45101 26.9499 5.45101C25.9184 5.45101 24.887 5.4961 23.8555 5.63136C22.7804 5.76662 21.7199 5.99205 20.6593 6.28512C19.8893 6.51055 19.0612 6.62327 18.5963 7.68281C18.4075 8.11113 18.2912 9.03542 17.928 9.19322C17.3033 9.4412 17.2598 8.47183 17.2452 7.84061C17.2307 6.96142 16.8239 5.96951 16.1702 6.24003C15.4438 6.55564 15.589 7.93079 15.6181 8.80998C15.6181 9.03541 15.6617 9.71172 15.4873 9.84698C15.1823 10.1175 15.037 9.14813 15.0224 8.94524C14.9643 8.26894 15.0224 7.57009 14.9353 6.89379C14.8917 6.55564 14.6738 6.37529 14.4849 6.35275C13.8312 6.26257 13.3372 7.14177 13.2936 8.02096C13.2646 8.67472 13.5987 9.7568 13.4389 10.388C13.3517 10.7036 13.3953 10.6811 13.2791 10.636C13.2355 10.6135 13.1919 10.5233 13.1483 10.4106C13.1193 10.1175 13.0902 9.82443 13.1048 9.7568C13.1193 9.23831 13.1919 8.74235 13.1629 8.22385C13.1048 7.41229 12.8578 6.6909 12.3929 6.26257C11.2742 5.15794 9.66162 4.9776 8.38316 4.81979C6.9013 4.63945 5.41945 4.75216 3.93759 4.86488C3.16761 4.93251 2.41216 5.00014 1.64217 5.04523C1.17728 5.09031 1.08972 4.93003 1.08972 3.98321C1.08972 3.39708 1.8597 3.35198 2.03404 2.85602C2.16479 2.45024 2.17934 2.06704 1.74354 2.40516C1.16239 2.85602 -0.014372 3.87297 0.000132864 4.81979C0.0146609 5.76662 0.363333 6.16851 0.653892 6.28512C1.23502 6.51833 2.48443 6.215 3.34158 6.12482C4.32948 6.03465 5.54983 6.03465 6.53774 6.01211C7.5547 6.01211 8.57202 6.3302 9.58898 6.57818C10.3735 6.75853 12.175 6.96142 12.175 8.58455C12.175 8.87761 12.1604 9.14813 12.1604 9.39611C12.0587 9.55391 12.0006 9.80189 12.0442 10.1175C12.0733 10.2753 12.1168 10.4782 12.175 10.7036C12.2185 11.0643 12.3057 11.425 12.4655 11.8083C12.5382 11.9661 12.6108 12.1013 12.7125 12.2366C12.8868 12.5973 13.0757 12.8903 13.2936 13.0256C13.4534 13.1609 13.6568 13.1834 13.8457 13.0932C14.0055 13.0031 14.1653 12.8227 14.1944 12.5522C14.1944 12.5071 14.2089 12.4846 14.2089 12.4395C14.2234 12.3493 14.2234 12.2817 14.2089 12.1915C14.2815 11.9435 14.267 11.6279 14.1798 11.4025C14.2815 11.132 14.3687 10.8389 14.3977 10.5909C14.3977 10.5684 14.4123 10.5233 14.4123 10.4557C14.5576 10.8163 14.7755 11.1094 15.1241 11.2672C15.8796 11.6279 16.4462 10.636 16.5769 9.57646C16.6496 9.7568 16.7513 9.91461 16.8675 10.0724C17.4777 10.8389 18.3784 10.8389 18.9014 9.93715C19.3082 9.26085 19.3373 8.4042 19.9329 8.02096C20.5721 7.61518 21.3857 7.54755 22.0685 7.3672C23.5504 7.00651 24.9301 6.89379 26.4411 6.89379C27.4871 6.89379 28.0391 6.9801 28.7655 6.01211C29.0618 5.61725 29.274 4.88494 28.1286 4.6595Z" fill="#336EC2"/>
<g opacity="0.35">
<path d="M4.80674 2.04311C4.90844 2.04311 4.90844 1.81767 4.80674 1.81767C4.70504 1.79513 4.70504 2.04311 4.80674 2.04311Z" fill="#336EC2"/>
</g>
<g opacity="0.35">
<path d="M4.0369 2.76449C4.09501 2.76449 4.09501 2.60669 4.0369 2.60669C3.96426 2.60669 3.96426 2.76449 4.0369 2.76449Z" fill="#336EC2"/>
</g>
<g opacity="0.35">
<path d="M9.60105 3.35064C9.6301 3.35064 9.6301 3.26047 9.60105 3.26047C9.55746 3.26047 9.55746 3.35064 9.60105 3.35064Z" fill="#336EC2"/>
</g>
<g opacity="0.35">
<path d="M17.679 6.41655C17.7516 6.41655 17.7516 6.23621 17.679 6.23621C17.6064 6.23621 17.6064 6.41655 17.679 6.41655Z" fill="#336EC2"/>
</g>
<g opacity="0.35">
<path d="M10.2837 4.13964C10.3272 4.13964 10.3272 4.04947 10.2837 4.04947C10.2401 4.04947 10.2401 4.13964 10.2837 4.13964Z" fill="#336EC2"/>
</g>
<g opacity="0.35">
<path d="M18.0712 1.20901C18.0566 1.20901 18.0566 1.20901 18.0712 1.20901C18.0566 1.20901 18.0566 1.23155 18.0566 1.23155C18.0421 1.23155 18.0421 1.23155 18.0276 1.25409C18.0131 1.27664 18.0131 1.27664 18.0131 1.29918C18.0131 1.32172 17.9985 1.32172 17.9985 1.34427C17.9985 1.36681 17.9985 1.36681 17.9985 1.38935C17.9985 1.4119 18.0131 1.43444 18.0276 1.45698C18.0421 1.47953 18.0421 1.47953 18.0566 1.47953H18.0712C18.0857 1.50207 18.1002 1.50207 18.1148 1.50207C18.1293 1.50207 18.1438 1.50207 18.1583 1.47953C18.1874 1.45698 18.2019 1.38935 18.2019 1.34427C18.2019 1.29918 18.1874 1.23155 18.1583 1.20901C18.1438 1.18646 18.1293 1.18646 18.1148 1.18646C18.1002 1.18646 18.0857 1.18646 18.0712 1.20901Z" fill="#336EC2"/>
</g>
<g opacity="0.35">
<path d="M19.1606 1.75007C19.2187 1.75007 19.2187 1.61481 19.1606 1.61481C19.117 1.61481 19.117 1.75007 19.1606 1.75007Z" fill="#336EC2"/>
</g>
<g opacity="0.35">
<path d="M22.9523 4.2749C23.0104 4.2749 23.0104 4.1171 22.9523 4.1171C22.8942 4.1171 22.8942 4.2749 22.9523 4.2749Z" fill="#336EC2"/>
</g>
<g opacity="0.35">
<path d="M27.209 4.88358C27.2671 4.88358 27.2671 4.74832 27.209 4.74832C27.1654 4.74832 27.1654 4.88358 27.209 4.88358Z" fill="#336EC2"/>
</g>
<g opacity="0.35">
<path d="M23.8239 4.02694H23.8384C23.8384 4.02694 23.8384 4.02694 23.8529 4.02694C23.8674 4.02694 23.8674 4.02694 23.882 4.02694C23.8965 4.02694 23.8965 4.02694 23.911 4.0044C23.9401 3.98186 23.9546 3.93677 23.9546 3.86914C23.9546 3.80151 23.9401 3.75642 23.911 3.73388H23.8965C23.882 3.73388 23.8674 3.71133 23.8529 3.71133C23.8529 3.71133 23.8529 3.71133 23.8384 3.71133H23.8239C23.8093 3.71133 23.7948 3.71133 23.7803 3.73388C23.7658 3.73388 23.7512 3.75642 23.7512 3.75642C23.7367 3.77896 23.7367 3.77896 23.7367 3.80151C23.7367 3.82405 23.7222 3.84659 23.7222 3.86914C23.7222 3.89168 23.7222 3.89168 23.7222 3.91423C23.7222 3.93677 23.7367 3.95931 23.7512 3.98186L23.7658 4.0044C23.7948 4.0044 23.8093 4.02694 23.8239 4.02694Z" fill="#336EC2"/>
</g>
<g opacity="0.15">
<path d="M5.72217 2.74194H5.70764C5.69311 2.74194 5.67859 2.74194 5.66406 2.74194C5.64953 2.74194 5.64953 2.74194 5.635 2.74194C5.62047 2.74194 5.62047 2.76449 5.60595 2.76449C5.59142 2.76449 5.59142 2.78703 5.59142 2.80957C5.59142 2.83212 5.57689 2.83212 5.59142 2.85466V2.8772C5.59142 2.89975 5.60595 2.92229 5.60595 2.92229L5.62047 2.94483C5.635 2.94483 5.64953 2.96738 5.66406 2.96738H5.67859H5.69311C5.69311 2.96738 5.69311 2.96738 5.70764 2.96738H5.72217C5.72217 2.96738 5.7367 2.96738 5.7367 2.94483C5.75123 2.94483 5.75123 2.92229 5.75123 2.92229L5.76575 2.89975C5.76575 2.8772 5.76575 2.8772 5.76575 2.85466V2.83212C5.76575 2.83212 5.76575 2.80957 5.75123 2.80957C5.75123 2.78703 5.7367 2.78703 5.7367 2.78703C5.7367 2.76449 5.72217 2.74194 5.72217 2.74194Z" fill="#336EC2"/>
</g>
<g opacity="0.15">
<path d="M8.07599 2.83212C8.10505 2.83212 8.10505 2.74194 8.07599 2.74194C8.04694 2.76449 8.04694 2.83212 8.07599 2.83212Z" fill="#336EC2"/>
</g>
<g opacity="0.15">
<path d="M2.1922 4.07202C2.22126 4.07202 2.22126 4.00439 2.1922 4.00439C2.16315 4.00439 2.16315 4.07202 2.1922 4.07202Z" fill="#336EC2"/>
</g>
<g opacity="0.15">
<path d="M4.06602 4.56798C4.18224 4.56798 4.18224 4.29745 4.06602 4.29745C3.96432 4.29745 3.96432 4.56798 4.06602 4.56798Z" fill="#336EC2"/>
</g>
<g opacity="0.15">
<path d="M9.06349 3.73388C9.06349 3.75642 9.07802 3.75642 9.09255 3.77896C9.09255 3.77896 9.07802 3.75642 9.06349 3.73388C9.07802 3.73388 9.07802 3.75642 9.06349 3.73388C9.06349 3.71133 9.04896 3.71133 9.04896 3.71133C9.03443 3.71133 9.03443 3.71133 9.01991 3.71133C9.00538 3.71133 9.00538 3.71133 8.99085 3.71133C8.97632 3.71133 8.97632 3.73388 8.96179 3.73388C8.96179 3.73388 8.94727 3.75642 8.94727 3.77896C8.94727 3.80151 8.94727 3.80151 8.94727 3.82405V3.84659C8.94727 3.86914 8.96179 3.89168 8.96179 3.89168L8.97632 3.91423C8.99085 3.91423 9.00538 3.93677 9.00538 3.93677H9.01991C9.03443 3.93677 9.03443 3.93677 9.04896 3.91423C9.06349 3.91423 9.06349 3.89168 9.06349 3.89168C9.06349 3.89168 9.06349 3.86914 9.07802 3.84659C9.06349 3.86914 9.04896 3.89168 9.04896 3.89168H9.06349H9.07802C9.07802 3.89168 9.09255 3.89168 9.09255 3.86914C9.09255 3.86914 9.09255 3.86914 9.09255 3.84659V3.82405V3.80151V3.77896C9.09255 3.77896 9.09255 3.75642 9.07802 3.75642C9.07802 3.75642 9.07802 3.73388 9.06349 3.73388Z" fill="#336EC2"/>
</g>
<g opacity="0.15">
<path d="M17.2131 2.22345C17.3294 2.22345 17.3294 1.93039 17.2131 1.93039C17.0969 1.93039 17.0969 2.22345 17.2131 2.22345Z" fill="#336EC2"/>
</g>
<g opacity="0.15">
<path d="M21.3834 3.59861C21.3834 3.59861 21.3834 3.57607 21.3834 3.59861C21.3834 3.57607 21.3689 3.57607 21.3689 3.57607C21.3689 3.57607 21.3544 3.57607 21.3544 3.55353H21.3398H21.3253C21.3253 3.55353 21.3108 3.55353 21.3108 3.57607L21.2963 3.59861V3.62116C21.2963 3.6437 21.2817 3.6437 21.2817 3.66624C21.2817 3.68879 21.2817 3.68879 21.2963 3.71133C21.3108 3.73388 21.3253 3.75642 21.3398 3.75642C21.3544 3.75642 21.3834 3.73388 21.3834 3.71133C21.3834 3.68879 21.398 3.68879 21.398 3.66624C21.3834 3.62116 21.3834 3.59861 21.3834 3.59861Z" fill="#336EC2"/>
</g>
<g opacity="0.15">
<path d="M18.5213 5.15411C18.5213 5.13156 18.5212 5.10902 18.5067 5.08648C18.5067 5.08648 18.5067 5.08648 18.4922 5.06393H18.4777H18.4631C18.4486 5.06393 18.4486 5.08648 18.4341 5.08648V5.10902C18.4341 5.10902 18.4341 5.10902 18.4341 5.13156V5.15411C18.4341 5.15411 18.4341 5.17665 18.4486 5.17665L18.4631 5.1992H18.4777H18.4922C18.5067 5.1992 18.5067 5.19919 18.5067 5.17665C18.5067 5.17665 18.5067 5.17665 18.5067 5.15411C18.5212 5.17665 18.5213 5.17665 18.5213 5.15411Z" fill="#336EC2"/>
</g>
<g opacity="0.15">
<path d="M15.7757 5.44715C15.8339 5.44715 15.8339 5.31189 15.7757 5.31189C15.7176 5.31189 15.7031 5.44715 15.7757 5.44715Z" fill="#336EC2"/>
</g>
<g opacity="0.15">
<path d="M26.5262 5.13156C26.5988 5.13156 26.5988 4.97375 26.5262 4.97375C26.4535 4.95121 26.4535 5.13156 26.5262 5.13156Z" fill="#336EC2"/>
</g>
</svg>
