<svg width="21" height="19" viewBox="0 0 21 19" fill="none" xmlns="http://www.w3.org/2000/svg">
<path d="M12.73 0.0721357C9.25244 -0.142976 5.76184 0.12358 2.35726 0.864236C1.78162 0.948451 1.23488 1.1706 0.763632 1.51175C0.320433 1.88579 0.0752597 2.56159 0.361296 3.06451C0.582558 3.39232 0.919276 3.62466 1.30427 3.71517C2.61501 4.12693 4.03576 3.88805 5.40622 4.02949C6.77668 4.17094 8.30115 4.87817 8.54947 6.22977C8.65006 6.77041 8.52433 7.33619 8.63748 7.87369C8.75064 8.41119 9.26613 8.95183 9.78477 8.76952C10.5454 8.50234 10.2563 7.24818 10.8472 6.7044C11.3438 6.24549 12.2114 6.57867 12.554 7.16332C12.8966 7.74796 12.8683 8.46148 12.8997 9.13728C12.9469 10.3191 12.1894 12.2805 12.7897 13.2989C13.5692 14.6254 14.5091 13.2204 14.8988 12.6703C15.4081 11.9442 15.9958 12.1925 16.0744 13.2015C16.1781 14.5594 16.4485 15.8858 16.8539 16.7157C17.1431 17.3066 17.6146 17.9352 18.2621 18.0453C19.2051 18.2056 19.8872 16.7691 20.1481 15.845C21.1131 12.3371 21.2514 8.44576 19.6483 5.17678C18.0452 1.9078 14.3991 -0.50308 10.8126 0.112998" fill="white"/>
<g opacity="0.3">
<path d="M1.97698 0.86738C0.581374 1.02454 -0.408624 1.89522 0.166592 2.96707C1.45218 5.37794 4.50743 4.08921 6.4531 5.04476C8.33905 5.96259 6.78943 8.72237 8.77596 9.62762C9.12283 9.78498 9.50605 9.84472 9.88435 9.80041C10.2627 9.7561 10.6217 9.60942 10.9228 9.37616C11.2371 9.1247 11.8658 7.55936 12.0952 7.52479L11.102 7.26075C13.0759 9.05869 9.77552 12.5446 12.0449 14.2576C12.8842 14.8863 13.9309 14.6977 14.745 14.1445C15.119 13.8962 15.688 13.4781 15.8451 13.0443L15.4837 12.7332C15.5277 12.8998 15.5654 13.0663 15.5937 13.2392C15.6245 13.5711 15.676 13.9007 15.7477 14.2262C16.062 16.1122 16.4806 18.7839 19.5353 18.0264C20.9937 17.5486 21.0252 13.0424 20.9937 10.7196C20.9937 9.8363 20.5097 9.58991 20.2079 10.316C19.7574 11.4735 19.8936 12.0291 19.7364 13.4435C19.646 14.2576 19.7868 15.7224 19.3499 15.8796C18.6866 16.1153 18.2686 15.4709 18.0643 14.9743C17.5802 13.7893 17.7154 12.1045 16.8478 11.1615C16.7481 11.0306 16.6232 10.9209 16.4806 10.8389C16.3379 10.7568 16.1803 10.704 16.017 10.6835C15.8537 10.663 15.688 10.6752 15.5295 10.7196C15.371 10.7639 15.2229 10.8393 15.0939 10.9415C14.6161 11.2684 14.2264 12.7332 13.538 12.4754C13.0414 12.2837 13.5694 10.7561 13.6291 10.316C13.7758 9.45103 13.7705 8.5671 13.6134 7.70395C13.3368 6.47494 12.2901 4.87502 10.8725 5.78971C10.2061 6.22662 10.467 7.13188 9.8981 7.49021C9.4329 7.78253 9.42347 6.65411 9.36375 6.18576C9.1563 4.61414 8.20389 3.54228 6.63541 3.12737C5.06692 2.71247 0.581503 4.28095 2.20971 1.1817C2.37484 0.86738 3.23427 0.867379 3.15261 0.710217C3.12757 0.66993 2.76278 0.553053 2.60562 0.710217C2.44845 0.86738 1.97698 0.86738 1.97698 0.86738Z" fill="#336EC2"/>
</g>
<g opacity="0.35">
<path d="M14.5593 1.88579L14.5279 1.94236V1.9738C14.5232 1.9913 14.5232 2.00973 14.5279 2.02723C14.5247 2.03853 14.5247 2.05051 14.5279 2.06181C14.5336 2.07859 14.5433 2.09372 14.5562 2.10581L14.5845 2.12782H14.6159C14.6345 2.13247 14.6539 2.13247 14.6725 2.12782C14.689 2.13194 14.7063 2.13194 14.7228 2.12782L14.7794 2.09638C14.8016 2.08362 14.8201 2.06518 14.8328 2.04295C14.8477 2.01949 14.8554 1.99215 14.8548 1.96437V1.92351C14.8494 1.89722 14.8363 1.87315 14.8171 1.85435C14.8032 1.83992 14.7859 1.82912 14.7668 1.82292C14.7473 1.81725 14.7266 1.81725 14.7071 1.82292C14.6797 1.82309 14.6527 1.83043 14.629 1.84421C14.6053 1.858 14.5856 1.87775 14.5719 1.9015L14.5593 1.88579Z" fill="#336EC2"/>
</g>
<g opacity="0.15">
<path d="M16.3603 2.78161C16.3827 2.77753 16.403 2.7657 16.4177 2.74818C16.4323 2.73066 16.4403 2.70856 16.4403 2.68574C16.4403 2.66292 16.4323 2.64083 16.4177 2.62331C16.403 2.60579 16.3827 2.59396 16.3603 2.58987C16.3378 2.59396 16.3175 2.60579 16.3029 2.62331C16.2883 2.64083 16.2803 2.66292 16.2803 2.68574C16.2803 2.70856 16.2883 2.73066 16.3029 2.74818C16.3175 2.7657 16.3378 2.77753 16.3603 2.78161V2.78161Z" fill="#336EC2"/>
</g>
<g opacity="0.35">
<path d="M15.6815 3.57373C15.6939 3.57076 15.7049 3.56371 15.7127 3.55373C15.7206 3.54376 15.7249 3.53142 15.7249 3.51872C15.7249 3.50602 15.7206 3.49369 15.7127 3.48371C15.7049 3.47373 15.6939 3.46669 15.6815 3.46371C15.6692 3.46669 15.6582 3.47373 15.6503 3.48371C15.6425 3.49369 15.6382 3.50602 15.6382 3.51872C15.6382 3.53142 15.6425 3.54376 15.6503 3.55373C15.6582 3.56371 15.6692 3.57076 15.6815 3.57373Z" fill="#336EC2"/>
</g>
<g opacity="0.15">
<path d="M19.224 13.0318C19.2465 13.0318 19.2681 13.0228 19.284 13.0069C19.3 12.991 19.3089 12.9694 19.3089 12.9469C19.3089 12.9244 19.3 12.9028 19.284 12.8869C19.2681 12.871 19.2465 12.862 19.224 12.862C19.2015 12.862 19.1799 12.871 19.164 12.8869C19.1481 12.9028 19.1392 12.9244 19.1392 12.9469C19.1392 12.9694 19.1481 12.991 19.164 13.0069C19.1799 13.0228 19.2015 13.0318 19.224 13.0318V13.0318Z" fill="#336EC2"/>
</g>
<g opacity="0.35">
<path d="M20.1611 10.8064C20.2028 10.8064 20.2427 10.7898 20.2722 10.7603C20.3017 10.7309 20.3182 10.6909 20.3182 10.6492C20.3182 10.6075 20.3017 10.5675 20.2722 10.5381C20.2427 10.5086 20.2028 10.492 20.1611 10.492C20.1194 10.492 20.0794 10.5086 20.0499 10.5381C20.0205 10.5675 20.0039 10.6075 20.0039 10.6492C20.0039 10.6909 20.0205 10.7309 20.0499 10.7603C20.0794 10.7898 20.1194 10.8064 20.1611 10.8064Z" fill="#336EC2"/>
</g>
<g opacity="0.15">
<path d="M18.4445 9.38244C18.4662 9.38244 18.487 9.37383 18.5023 9.35851C18.5176 9.34318 18.5262 9.32239 18.5262 9.30072C18.5262 9.27904 18.5176 9.25826 18.5023 9.24293C18.487 9.2276 18.4662 9.21899 18.4445 9.21899C18.4228 9.21899 18.4021 9.2276 18.3867 9.24293C18.3714 9.25826 18.3628 9.27904 18.3628 9.30072C18.3628 9.32239 18.3714 9.34318 18.3867 9.35851C18.4021 9.37383 18.4228 9.38244 18.4445 9.38244V9.38244Z" fill="#336EC2"/>
</g>
<g opacity="0.35">
<path d="M4.95322 1.50232C4.97072 1.50232 4.98751 1.49536 4.99989 1.48298C5.01227 1.4706 5.01922 1.45382 5.01922 1.43631C5.01922 1.4188 5.01227 1.40201 4.99989 1.38963C4.98751 1.37725 4.97072 1.3703 4.95322 1.3703C4.93571 1.3703 4.91892 1.37725 4.90654 1.38963C4.89416 1.40201 4.88721 1.4188 4.88721 1.43631C4.88721 1.45382 4.89416 1.4706 4.90654 1.48298C4.91892 1.49536 4.93571 1.50232 4.95322 1.50232Z" fill="#336EC2"/>
</g>
<g opacity="0.15">
<path d="M6.98428 2.1467H7.02828C7.04577 2.15152 7.06423 2.15152 7.08172 2.1467C7.09891 2.1403 7.11409 2.12946 7.12573 2.11527C7.1401 2.10055 7.14993 2.082 7.15401 2.06184C7.15868 2.04433 7.15868 2.02591 7.15401 2.0084V1.97068C7.1488 1.94774 7.13674 1.92691 7.11944 1.91096L7.09744 1.88581C7.07478 1.87982 7.05095 1.87982 7.02828 1.88581H6.98428C6.96785 1.8811 6.95042 1.8811 6.93399 1.88581C6.9172 1.89145 6.90208 1.90117 6.88998 1.9141C6.8756 1.92493 6.86557 1.94054 6.86169 1.95811C6.8573 1.97565 6.8573 1.994 6.86169 2.01154V2.04926C6.86813 2.07244 6.88125 2.09321 6.89941 2.10899L6.92456 2.13099C6.94549 2.14338 6.96938 2.1499 6.99371 2.14985L6.98428 2.1467Z" fill="#336EC2"/>
</g>
<g opacity="0.35">
<path d="M8.75714 0.879941C8.77548 0.879941 8.79307 0.872656 8.80604 0.859687C8.81901 0.846719 8.82629 0.82913 8.82629 0.81079C8.82629 0.79245 8.81901 0.774861 8.80604 0.761892C8.79307 0.748924 8.77548 0.741638 8.75714 0.741638C8.7388 0.741638 8.72121 0.748924 8.70824 0.761892C8.69527 0.774861 8.68799 0.79245 8.68799 0.81079C8.68799 0.82913 8.69527 0.846719 8.70824 0.859687C8.72121 0.872656 8.7388 0.879941 8.75714 0.879941V0.879941Z" fill="#336EC2"/>
</g>
</svg>
