<svg width="144" height="144" viewBox="0 0 144 144" fill="none" xmlns="http://www.w3.org/2000/svg">
<path d="M106.037 85.05L129.04 78.93C131.53 78.255 134.157 79.605 134.836 82.125C135.515 84.645 134.021 87.165 131.53 87.84L117.539 91.575L127.546 97.29C129.719 98.55 130.489 101.295 129.221 103.455C127.953 105.615 125.191 106.38 123.018 105.12L113.011 99.405L116.769 113.31C117.448 115.83 115.999 118.35 113.463 119.025C110.928 119.7 108.392 118.215 107.713 115.74L101.554 92.88L91.1398 86.895C87.9249 90.45 83.6684 93.06 78.7781 94.05V105.885L95.6226 122.625C97.4339 124.425 97.4339 127.395 95.6226 129.195C93.8114 130.995 90.8229 130.995 89.0116 129.195L78.7781 119.025V130.5C78.7781 132.975 76.7405 135 74.25 135C71.7595 135 69.7219 132.975 69.7219 130.5V119.07L59.4884 129.24C57.6771 131.04 54.6886 131.04 52.8774 129.24C51.0661 127.44 51.0661 124.47 52.8774 122.67L69.7219 105.93V94.095C64.7863 93.105 60.5751 90.495 57.3602 86.94L46.9908 92.88L40.8326 115.74C40.1534 118.215 37.5724 119.7 35.0819 119.025C32.5915 118.35 31.0972 115.785 31.7764 113.31L35.5347 99.405L25.5276 105.165C23.3541 106.38 20.592 105.66 19.3241 103.5C18.0563 101.34 18.826 98.595 20.9542 97.425L30.9613 91.665L16.9695 87.93C14.4791 87.255 12.9848 84.69 13.664 82.215C14.3432 79.74 16.9242 78.255 19.4147 78.93L42.4174 85.05L52.8321 79.065C52.0623 76.86 51.5642 74.475 51.5642 72C51.5642 69.525 52.0623 67.14 52.8321 65.025L42.4174 59.04L19.4147 65.16C16.8789 65.835 14.3432 64.35 13.664 61.875C12.9848 59.355 14.4791 56.835 16.9695 56.16L30.9613 52.425L20.9542 46.665C18.826 45.405 18.0563 42.66 19.3241 40.5C20.5467 38.34 23.3541 37.62 25.4823 38.835L35.5347 44.595L31.7764 30.69C31.0972 28.215 32.5915 25.695 35.0819 25.02C37.5724 24.345 40.1081 25.83 40.7873 28.305L46.9455 51.165L57.3149 57.105C60.5299 53.55 64.7863 50.94 69.6766 49.95V38.115L52.8321 21.375C51.0208 19.575 51.0208 16.605 52.8321 14.805C54.6433 13.005 57.6319 13.005 59.4431 14.805L69.6766 24.975V13.5C69.6766 11.025 71.7143 9 74.2047 9C76.6952 9 78.7328 11.025 78.7328 13.5V24.975L88.9663 14.805C90.7776 13.005 93.7661 13.005 95.5774 14.805C97.3886 16.605 97.3886 19.575 95.5774 21.375L78.7328 38.115V49.95C83.6232 50.94 87.8796 53.55 91.0493 57.06L101.464 51.075L107.622 28.215C108.301 25.74 110.882 24.255 113.373 24.93C115.863 25.605 117.358 28.17 116.678 30.645L112.92 44.55L122.927 38.835C125.101 37.62 127.863 38.34 129.131 40.5C130.353 42.66 129.629 45.405 127.5 46.62L117.493 52.335L131.485 56.07C133.976 56.745 135.47 59.31 134.791 61.785C134.112 64.26 131.53 65.745 129.04 65.07L106.037 58.95L95.6226 64.935C96.3924 67.14 96.8905 69.525 96.8905 72C96.8905 74.475 96.3924 76.815 95.6226 79.065L106.037 85.05ZM87.7892 72C87.7892 64.5442 81.7073 58.5 74.2049 58.5C66.7025 58.5 60.6206 64.5442 60.6206 72C60.6206 79.4558 66.7025 85.5 74.2049 85.5C81.7073 85.5 87.7892 79.4558 87.7892 72Z" fill="white"/>
</svg>
